<svg xmlns="http://www.w3.org/2000/svg" width="826.30527" height="603.5" viewBox="0 0 826.30527 603.5">  
  <!-- Background circle -->
  <circle cx="413" cy="301.75" r="250" fill="#f2f2f2"/>
  
  <!-- Brain outline -->
  <path d="M413,151.75c-82.84,0-150,67.16-150,150s67.16,150,150,150,150-67.16,150-150S495.84,151.75,413,151.75zm0,270c-66.27,0-120-53.73-120-120s53.73-120,120-120,120,53.73,120,120S479.27,421.75,413,421.75z" fill="#3f3d56"/>
  
  <!-- Circuit lines -->
  <path d="M413,211.75v180M323,301.75h180M368,256.75l90,90M458,256.75l-90,90" stroke="#4285f4" stroke-width="10" stroke-linecap="round"/>
  
  <!-- Nodes -->
  <circle cx="413" cy="301.75" r="15" fill="#4285f4"/>
  <circle cx="413" cy="211.75" r="15" fill="#4285f4"/>
  <circle cx="413" cy="391.75" r="15" fill="#4285f4"/>
  <circle cx="323" cy="301.75" r="15" fill="#4285f4"/>
  <circle cx="503" cy="301.75" r="15" fill="#4285f4"/>
  <circle cx="368" cy="256.75" r="15" fill="#4285f4"/>
  <circle cx="458" cy="346.75" r="15" fill="#4285f4"/>
  <circle cx="368" cy="346.75" r="15" fill="#4285f4"/>
  <circle cx="458" cy="256.75" r="15" fill="#4285f4"/>
</svg>