<svg xmlns="http://www.w3.org/2000/svg" width="826.30527" height="603.5" viewBox="0 0 826.30527 603.5">
  <defs>
    <linearGradient id="skyGradient" x1="0%" y1="0%" x2="0%" y2="100%">
      <stop offset="0%" style="stop-color:#87CEEB;stop-opacity:1" />
      <stop offset="100%" style="stop-color:#E6E6FA;stop-opacity:1" />
    </linearGradient>
    <filter id="cloudFilter">
      <feGaussianBlur in="SourceAlpha" stdDeviation="10" result="blur" />
      <feOffset in="blur" dx="0" dy="10" result="offsetBlur"/>
      <feMerge> 
        <feMergeNode in="offsetBlur" />
        <feMergeNode in="SourceGraphic" /> 
      </feMerge>
    </filter>
  </defs>
  
  <!-- Sky background -->
  <!-- <rect x="0" y="0" width="826.30527" height="603.5" fill="url(#skyGradient)"/> -->
  
  <!-- Cloud shapes -->
  <g filter="url(#cloudFilter)">
    <path d="M600,200 Q650,150 700,200 T800,200 T900,200 T1000,200 Q1050,150 1000,100 H600 Q550,150 600,200" fill="white" transform="translate(-300,-50) scale(0.8)">
      <animateTransform attributeName="transform" type="translate" from="-300,-50" to="100,-50" dur="30s" repeatCount="indefinite"/>
    </path>
    <path d="M200,250 Q250,200 300,250 T400,250 T500,250 T600,250 Q650,200 600,150 H200 Q150,200 200,250" fill="white" transform="translate(-100,-25) scale(0.6)">
      <animateTransform attributeName="transform" type="translate" from="-100,-25" to="300,-25" dur="20s" repeatCount="indefinite"/>
    </path>
  </g>
  
  <!-- Central server tower -->
  <g transform="translate(413.15264, 301.75)">
    <rect x="-75" y="-150" width="150" height="300" rx="20" fill="#4285f4"/>
    <rect x="-60" y="-135" width="120" height="270" rx="10" fill="#3f3d56"/>
    
    <!-- Server lights -->
    <g>
      <circle cx="-40" cy="-100" r="5" fill="#00ff00">
        <animate attributeName="opacity" values="1;0.2;1" dur="2s" repeatCount="indefinite"/>
      </circle>
      <circle cx="0" cy="-100" r="5" fill="#ff0000">
        <animate attributeName="opacity" values="0.2;1;0.2" dur="1.5s" repeatCount="indefinite"/>
      </circle>
      <circle cx="40" cy="-100" r="5" fill="#0000ff">
        <animate attributeName="opacity" values="1;0.2;1" dur="3s" repeatCount="indefinite"/>
      </circle>
    </g>
    
    <!-- Data flow animation -->
    <g>
      <rect x="-50" y="-80" width="100" height="10" fill="#ffffff" opacity="0.7">
        <animate attributeName="y" values="-80;170;-80" dur="5s" repeatCount="indefinite"/>
      </rect>
      <rect x="-50" y="0" width="100" height="10" fill="#ffffff" opacity="0.7">
        <animate attributeName="y" values="0;250;0" dur="7s" repeatCount="indefinite"/>
      </rect>
    </g>
  </g>
  
  <!-- Orbiting data nodes -->
  <g>
    <circle cx="413.15264" cy="301.75" r="200" fill="none" stroke="#3f3d56" stroke-width="2" stroke-dasharray="10 5"/>
    <g>
      <circle cx="413.15264" cy="101.75" r="20" fill="#ff6b6b">
        <animateTransform attributeName="transform" type="rotate" from="0 413.15264 301.75" to="360 413.15264 301.75" dur="10s" repeatCount="indefinite"/>
      </circle>
      <circle cx="413.15264" cy="501.75" r="15" fill="#48dbfb">
        <animateTransform attributeName="transform" type="rotate" from="180 413.15264 301.75" to="540 413.15264 301.75" dur="15s" repeatCount="indefinite"/>
      </circle>
      <circle cx="213.15264" cy="301.75" r="25" fill="#ff9ff3">
        <animateTransform attributeName="transform" type="rotate" from="90 413.15264 301.75" to="450 413.15264 301.75" dur="20s" repeatCount="indefinite"/>
      </circle>
    </g>
  </g>
  
  <!-- Connecting lines -->
  <g stroke="#3f3d56" stroke-width="2">
    <line x1="413.15264" y1="301.75" x2="413.15264" y2="101.75">
      <animate attributeName="y2" values="101.75;501.75;101.75" dur="10s" repeatCount="indefinite"/>
    </line>
    <line x1="413.15264" y1="301.75" x2="413.15264" y2="501.75">
      <animate attributeName="y2" values="501.75;101.75;501.75" dur="15s" repeatCount="indefinite"/>
    </line>
    <line x1="413.15264" y1="301.75" x2="213.15264" y2="301.75">
      <animate attributeName="x2" values="213.15264;613.15264;213.15264" dur="20s" repeatCount="indefinite"/>
    </line>
  </g>
  
</svg>