<svg xmlns="http://www.w3.org/2000/svg" width="826.30527" height="603.5" viewBox="0 0 826.30527 603.5">
  <rect x="0" y="0" width="826.30527" height="603.5" fill="#ffffff"/>
  
  <!-- Backend Server -->
  <rect x="50" y="150" width="200" height="300" rx="10" fill="#f8f9fa" stroke="#3f3d56" stroke-width="3"/>
  <rect x="70" y="180" width="160" height="30" rx="5" fill="#4285f4"/>
  <rect x="70" y="220" width="160" height="20" rx="5" fill="#f2f2f2" stroke="#3f3d56" stroke-width="2"/>
  <rect x="70" y="250" width="160" height="20" rx="5" fill="#f2f2f2" stroke="#3f3d56" stroke-width="2"/>
  <rect x="70" y="280" width="160" height="20" rx="5" fill="#f2f2f2" stroke="#3f3d56" stroke-width="2"/>
  
  <!-- Frontend Device -->
  <rect x="576.30527" y="150" width="200" height="300" rx="10" fill="#f8f9fa" stroke="#3f3d56" stroke-width="3"/>
  <rect x="596.30527" y="170" width="160" height="260" rx="5" fill="#f2f2f2" stroke="#3f3d56" stroke-width="2"/>
  <rect x="616.30527" y="190" width="120" height="80" rx="5" fill="#4285f4"/>
  <rect x="616.30527" y="280" width="120" height="20" rx="5" fill="#3f3d56"/>
  <rect x="616.30527" y="310" width="120" height="20" rx="5" fill="#3f3d56"/>
  <rect x="616.30527" y="340" width="120" height="20" rx="5" fill="#3f3d56"/>
  
  <!-- Middle Layer (API, Middleware) -->
  <ellipse cx="413.15263" cy="301.75" rx="150" ry="100" fill="#f8f9fa" stroke="#3f3d56" stroke-width="3"/>
  <path d="M363.15263,301.75 Q413.15263,251.75 463.15263,301.75 T563.15263,301.75" fill="none" stroke="#4285f4" stroke-width="3"/>
  <path d="M363.15263,321.75 Q413.15263,371.75 463.15263,321.75 T563.15263,321.75" fill="none" stroke="#4285f4" stroke-width="3"/>
  
  <!-- Connecting Lines -->
  <path d="M250,300 L363.15263,301.75" fill="none" stroke="#3f3d56" stroke-width="2" stroke-dasharray="5,5"/>
  <path d="M463.15263,301.75 L576.30527,300" fill="none" stroke="#3f3d56" stroke-width="2" stroke-dasharray="5,5"/>
  
  <!-- Data Flow Representation -->
  <circle cx="300" cy="290" r="10" fill="#4285f4">
    <animate attributeName="cx" from="250" to="576.30527" dur="3s" repeatCount="indefinite"/>
  </circle>
  <circle cx="526.30527" cy="310" r="10" fill="#4285f4">
    <animate attributeName="cx" from="576.30527" to="250" dur="3s" repeatCount="indefinite"/>
  </circle>
  
  <!-- Code Snippets -->
  <rect x="100" y="400" width="100" height="80" rx="5" fill="#f2f2f2" stroke="#3f3d56" stroke-width="2"/>
  <text x="110" y="420" font-family="monospace" font-size="10" fill="#3f3d56">
    def api()
  </text>
  
  <rect x="626.30527" y="400" width="100" height="80" rx="5" fill="#f2f2f2" stroke="#3f3d56" stroke-width="2"/>
  <text x="636.30527" y="420" font-family="monospace" font-size="10" fill="#3f3d56">
    fetch('/api')
  </text>
  
  <!-- Technology Icons -->
  <circle cx="150" cy="520" r="20" fill="#4285f4"/>
  <text x="150" y="525" font-family="Arial" font-size="20" fill="#fff" text-anchor="middle">Py</text>
  
  <circle cx="200" cy="520" r="20" fill="#4285f4"/>
  <text x="200" y="525" font-family="Arial" font-size="20" fill="#fff" text-anchor="middle">JS</text>
  
  <circle cx="626.30527" cy="520" r="20" fill="#4285f4"/>
  <text x="626.30527" y="525" font-family="Arial" font-size="20" fill="#fff" text-anchor="middle">Re</text>
  
  <circle cx="676.30527" cy="520" r="20" fill="#4285f4"/>
  <text x="676.30527" y="525" font-family="Arial" font-size="20" fill="#fff" text-anchor="middle">Ng</text>
</svg>